Coordinates
version=1
nRows=21
nColumns=33
inDegrees=yes

Units are S.I. units (second, meters, Newtons, ...)
Angles are in degrees.

endheader
time	ground_thorax_rot_x	ground_thorax_rot_y	ground_thorax_rot_z	ground_thorax_tx	ground_thorax_ty	ground_thorax_tz	clav_prot_r	clav_elev_r	scapula_abduction_r	scapula_elevation_r	scapula_upward_rot_r	scapula_winging_r	shoulder_elv_r	plane_of_elev_r	axial_rot_r	elbow_flexion_r	pro_sup_r	wrist_flex_r	wrist_dev_r	clav_prot_l	clav_elev_l	scapula_abduction_l	scapula_elevation_l	scapula_upward_rot_l	scapula_winging_l	shoulder_elv_l	plane_of_elev_l	axial_rot_l	elbow_flexion_l	pro_sup_l	wrist_flex_l	wrist_dev_l
      6.86000000	     31.33343118	     23.13688894	     33.87898513	    -69.19766666	    861.48064072	    -48.39710985	     13.20676276	     33.92350887	     26.68070088	     45.00000000	    -45.00000000	   2069.59075788	     74.11814282	     21.82513867	   -161.82390997	   1078.78605837	   -195.67375077	     16.82323938	     13.18224304	     -6.45162230	    -45.00000000	    -40.71453415	     45.00000000	    -45.00000000	   5147.27797456	  -2606.77210659	    134.37763226	   -128.01340182	   1430.83385425	    404.93762478	     13.07573147	    -22.58656736
      6.87000000	     31.23687456	     23.34193398	     34.06527865	    -68.99840118	    861.27579497	    -48.31353940	     12.99649765	     33.91755920	     26.44703459	     45.00000000	    -45.00000000	   2069.69473344	     74.12841564	     21.80729013	   -161.90865980	   1078.72875429	   -195.56499652	     17.10346716	     13.10551102	     -6.41252918	    -45.00000000	    -40.77573822	     45.00000000	    -45.00000000	   5147.33447179	  -2606.83258355	    134.40449579	   -128.21790375	   1430.69271334	    404.93942848	     12.65405067	    -22.72111479
      6.88000000	     31.41751292	     23.26451075	     33.93485746	    -68.68455228	    860.96195877	    -48.21199018	     13.07859208	     33.81847046	     26.69247605	     45.00000000	    -45.00000000	   2069.68734803	     74.00784426	     21.79796681	   -161.84608232	   1078.66389787	   -195.27348446	     16.80503558	     13.31906184	     -6.35583495	    -45.00000000	    -40.65861892	     45.00000000	    -45.00000000	   5147.33985971	  -2606.96741929	    134.45933876	   -128.19049844	   1430.91670942	    405.11198318	     13.28064537	    -22.88068375
      6.89000000	     31.35392940	     23.49094707	     34.06058068	    -68.24894244	    860.54746746	    -48.09620509	     13.01183571	     33.91438592	     26.38618225	     45.00000000	    -45.00000000	   2069.86700333	     74.06808440	     21.83773497	   -161.92958310	   1078.78622302	   -195.09037417	     17.21185015	     13.15521598	     -6.47438988	    -45.00000000	    -40.64430767	     45.00000000	    -45.00000000	   5147.31483038	  -2607.04413140	    134.36766658	   -128.23686444	   1430.76311387	    405.08497313	     12.55575055	    -22.96172169
      6.90000000	     31.32207088	     23.62783424	     34.24063396	    -67.68038880	    860.04137457	    -47.97196890	     13.05415796	     33.82445438	     26.47973305	     45.00000000	    -45.00000000	   2069.87233398	     73.94342874	     21.77484216	   -162.05165729	   1078.68833329	   -194.80618112	     17.04480329	     13.22213629	     -6.43113408	    -45.00000000	    -40.58428354	     45.00000000	    -45.00000000	   5147.23240977	  -2607.03100923	    134.50468912	   -128.20907495	   1430.79185926	    405.23007348	     13.10836862	    -23.08129179
      6.91000000	     31.33206465	     23.75732568	     34.30427820	    -66.96583973	    859.45145885	    -47.84487126	     13.00583478	     33.91491708	     26.36241571	     45.00000000	    -45.00000000	   2070.02010165	     73.91685938	     21.76835377	   -162.16070637	   1078.71029285	   -194.63749245	     17.40397962	     13.16879751	     -6.53288468	    -45.00000000	    -40.58175465	     45.00000000	    -45.00000000	   5147.26162150	  -2607.17334427	    134.41867148	   -128.21936662	   1430.64246807	    405.13932137	     12.46776758	    -23.10718167
      6.92000000	     31.28332331	     23.92736787	     34.49531146	    -66.09084600	    858.78434037	    -47.71948802	     13.03721250	     33.77819207	     26.39419403	     45.00000000	    -45.00000000	   2070.03559645	     73.82352056	     21.75863357	   -162.29325515	   1078.60460262	   -194.41060848	     17.15505021	     13.26871152	     -6.49566369	    -45.00000000	    -40.51803336	     45.00000000	    -45.00000000	   5147.13651997	  -2607.17337289	    134.51846688	   -128.10229658	   1430.69819312	    405.20930424	     13.10685517	    -23.22752889
      6.93000000	     31.29883050	     24.04898584	     34.57248754	    -65.04640453	    858.04942928	    -47.59821479	     13.01106024	     33.90587261	     26.33190847	     45.00000000	    -45.00000000	   2070.18142526	     73.77292422	     21.75924259	   -162.49120695	   1078.61234264	   -194.37860712	     17.51769837	     13.23067954	     -6.58164619	    -45.00000000	    -40.47484658	     45.00000000	    -45.00000000	   5147.14494477	  -2607.33048845	    134.36800460	   -128.03096780	   1430.56181013	    405.01502893	     12.46881344	    -23.20039843
      6.94000000	     31.22746141	     24.22952542	     34.79755888	    -63.82611566	    857.25532759	    -47.48064552	     13.04701678	     33.77332927	     26.32260615	     45.00000000	    -45.00000000	   2070.22703096	     73.69574292	     21.79606395	   -162.69258248	   1078.47315576	   -194.34745444	     17.29269674	     13.33178718	     -6.56817322	    -45.00000000	    -40.42478039	     45.00000000	    -45.00000000	   5147.02089904	  -2607.33945475	    134.45608659	   -127.81445762	   1430.64448777	    404.95716733	     13.01803504	    -23.24984027
      6.95000000	     31.20930415	     24.35293229	     34.93564665	    -62.42927393	    856.41113425	    -47.36406227	     12.92380993	     33.86341060	     26.33189926	     45.00000000	    -45.00000000	   2070.35437128	     73.60516964	     21.81069805	   -163.05533359	   1078.42034268	   -194.54235097	     17.46115495	     13.37889494	     -6.60730940	    -45.00000000	    -40.37346723	     45.00000000	    -45.00000000	   5147.04784856	  -2607.41816543	    134.29440724	   -127.59179298	   1430.56644350	    404.68309912	     12.69304895	    -23.26294790
      6.96000000	     31.12148951	     24.54189481	     35.14811372	    -60.85461931	    855.52221335	    -47.24509760	     12.84726978	     33.76020410	     26.22513692	     45.00000000	    -45.00000000	   2070.54650750	     73.57247743	     21.84674702	   -163.41581996	   1078.31531406	   -194.83472822	     17.37604375	     13.48720893	     -6.51015779	    -45.00000000	    -40.41892711	     45.00000000	    -45.00000000	   5146.96089900	  -2607.49795135	    134.29698272	   -127.34238992	   1430.59515161	    404.46692992	     12.88351378	    -23.22496182
      6.97000000	     31.07833316	     24.69489560	     35.36209599	    -59.11666261	    854.60030530	    -47.12219633	     12.73304938	     33.81616701	     26.36887771	     45.00000000	    -45.00000000	   2070.64644380	     73.38085008	     21.83142115	   -163.83591322	   1078.31823159	   -195.31055473	     17.31186708	     13.59521358	     -6.55242279	    -45.00000000	    -40.34418772	     45.00000000	    -45.00000000	   5146.91717086	  -2607.54587892	    134.17309201	   -126.96796177	   1430.55471849	    404.14983362	     12.88207402	    -23.23946182
      6.98000000	     30.98374725	     24.85211607	     35.65836650	    -57.22634151	    853.65270104	    -46.99554696	     12.71966669	     33.89691100	     26.55245361	     45.00000000	    -45.00000000	   2070.72350785	     73.15860505	     21.84112175	   -164.27191115	   1078.29470341	   -195.97631041	     17.20829011	     13.67394645	     -6.63334683	    -45.00000000	    -40.22779204	     45.00000000	    -45.00000000	   5146.82935682	  -2607.48807924	    134.11006682	   -126.56780260	   1430.50295522	    403.85562741	     12.96392288	    -23.25230073
      6.99000000	     30.84950783	     25.14946503	     35.93980826	    -55.20424099	    852.69115041	    -46.86765847	     12.48458447	     33.68399451	     26.38067278	     45.00000000	    -45.00000000	   2071.10605568	     73.22088176	     21.71455182	   -164.72846631	   1078.21244078	   -196.64516792	     17.07241146	     13.87574923	     -6.39207460	    -45.00000000	    -40.46511557	     45.00000000	    -45.00000000	   5146.77200841	  -2607.71921913	    134.07990954	   -126.29876538	   1430.51839112	    403.61428196	     12.99685759	    -23.15198038
      7.00000000	     30.70284574	     25.39356288	     36.26950460	    -53.06538505	    851.72568327	    -46.74211904	     12.38063904	     33.73115977	     26.38591759	     45.00000000	    -45.00000000	   2071.23790534	     73.07888162	     21.80365532	   -165.29133234	   1078.18379661	   -197.42829164	     16.91010902	     14.03849588	     -6.42412159	    -45.00000000	    -40.53713447	     45.00000000	    -45.00000000	   5146.67711681	  -2607.75979063	    134.06533030	   -125.86161642	   1430.52960848	    403.33517184	     13.05322439	    -23.09305322
      7.01000000	     30.58781734	     25.60420887	     36.56563271	    -50.82744864	    850.76914124	    -46.62267581	     12.37761137	     33.73882558	     26.47471848	     45.00000000	    -45.00000000	   2071.39385091	     72.93702448	     21.80627715	   -165.78827659	   1078.09363963	   -198.26771841	     16.75438644	     14.17299951	     -6.46696626	    -45.00000000	    -40.46950816	     45.00000000	    -45.00000000	   5146.56651421	  -2607.76007954	    133.99238987	   -125.41778499	   1430.54646540	    403.07875619	     13.12094195	    -23.06408727
      7.02000000	     30.78926548	     25.64451031	     36.61323938	    -48.51071852	    849.83687374	    -46.51300500	     12.76240753	     33.96798691	     26.75987399	     45.00000000	    -45.00000000	   2071.23757155	     72.78568312	     22.20123516	   -166.14096384	   1077.99809114	   -199.28732690	     16.58788319	     14.26602161	     -6.82152426	    -45.00000000	    -39.95522723	     45.00000000	    -45.00000000	   5146.33261935	  -2607.51732321	    133.73026930	   -124.86661022	   1430.38811557	    402.87718862	     13.24427676	    -23.08323705
      7.03000000	     30.68369293	     25.73383571	     36.91201380	    -46.10491859	    848.93158716	    -46.41436900	     13.09933584	     34.18454068	     27.09594952	     45.00000000	    -45.00000000	   2071.25509951	     72.50926798	     22.25554110	   -166.51592962	   1077.95362362	   -200.43772255	     16.36195538	     14.38465032	     -7.29744376	    -45.00000000	    -39.80054172	     45.00000000	    -45.00000000	   5146.07706556	  -2607.45492495	    133.77408864	   -124.23897788	   1430.31220331	    402.68033182	     13.32103713	    -23.00073706
      7.04000000	     30.61297227	     25.89784001	     37.18711643	    -43.63807641	    848.06903248	    -46.32925107	     13.18419652	     34.20008394	     27.30521266	     45.00000000	    -45.00000000	   2071.41168159	     72.40371023	     22.26576564	   -166.97185722	   1077.84651607	   -201.53687195	     16.10783572	     14.56693458	     -7.44123421	    -45.00000000	    -39.76007773	     45.00000000	    -45.00000000	   5145.92925775	  -2607.44849427	    133.69954858	   -123.71128596	   1430.29084288	    402.48620047	     13.43272307	    -22.86296943
      7.05000000	     30.54246945	     26.08606956	     37.39981650	    -41.10719763	    847.24746079	    -46.25761623	     12.94625072	     34.16184542	     27.24622057	     45.00000000	    -45.00000000	   2071.54914494	     72.40436873	     22.51205524	   -167.61819805	   1077.74614740	   -202.37891504	     15.86554830	     14.74112230	     -7.07150342	    -45.00000000	    -39.76390996	     45.00000000	    -45.00000000	   5145.88938599	  -2607.44471084	    133.48427521	   -123.35923067	   1430.28167499	    402.30549808	     13.59174651	    -22.76492711
      7.06000000	     30.42931977	     26.30136013	     37.72114817	    -38.51435045	    846.46076452	    -46.19884148	     13.08128140	     34.25172663	     27.42131412	     45.00000000	    -45.00000000	   2071.63329244	     72.28895102	     22.59998066	   -168.16494057	   1077.68929883	   -203.11858933	     15.64667042	     14.83396554	     -7.23587956	    -45.00000000	    -39.68784991	     45.00000000	    -45.00000000	   5145.71375353	  -2607.34949748	    133.40706181	   -122.79204730	   1430.27052458	    402.10417726	     13.74628680	    -22.60317396
